<svg width="24" height="25" viewBox="0 0 24 25" fill="none" xmlns="http://www.w3.org/2000/svg">
<g clipPath="url(#clip0_49_16627)">
<path d="M12 9.07129V14.2141" stroke="#D94042" strokeWidth="1.71429" strokeLinecap="round" strokeLinejoin="round"/>
<path d="M12.0017 20.2143C12.4751 20.2143 12.8588 19.8305 12.8588 19.3571C12.8588 18.8838 12.4751 18.5 12.0017 18.5C11.5283 18.5 11.1445 18.8838 11.1445 19.3571C11.1445 19.8305 11.5283 20.2143 12.0017 20.2143Z" stroke="#D94042" strokeWidth="1.71429" strokeLinecap="round" strokeLinejoin="round"/>
<path d="M13.5267 2.29983C13.3828 2.01902 13.1642 1.78337 12.895 1.61881C12.6258 1.45426 12.3165 1.36719 12.001 1.36719C11.6854 1.36719 11.3761 1.45426 11.1069 1.61881C10.8377 1.78337 10.6191 2.01902 10.4752 2.29983L1.04667 21.157C0.915162 21.4179 0.852553 21.7082 0.864784 22.0002C0.877014 22.2921 0.963678 22.5761 1.11654 22.8252C1.26941 23.0742 1.48341 23.2801 1.73821 23.4231C1.99301 23.5662 2.28016 23.6418 2.57238 23.6427H21.4295C21.7217 23.6418 22.0089 23.5662 22.2637 23.4231C22.5185 23.2801 22.7325 23.0742 22.8854 22.8252C23.0382 22.5761 23.1249 22.2921 23.1371 22.0002C23.1493 21.7082 23.0867 21.4179 22.9552 21.157L13.5267 2.29983Z" stroke="#D94042" strokeWidth="1.71429" strokeLinecap="round" strokeLinejoin="round"/>
</g>
<defs>
<clipPath id="clip0_49_16627">
<rect width="24" height="24" fill="white" transform="translate(0 0.5)"/>
</clipPath>
</defs>
</svg>
