<svg width="20" height="19" viewBox="0 0 20 19" fill="none" xmlns="http://www.w3.org/2000/svg">
<path d="M2.14258 6.78711H17.8569V16.7871C17.8569 17.166 17.7064 17.5294 17.4384 17.7973C17.1705 18.0652 16.8072 18.2157 16.4283 18.2157H3.57115C3.19227 18.2157 2.82891 18.0652 2.561 17.7973C2.29309 17.5294 2.14258 17.166 2.14258 16.7871V6.78711Z" stroke="#F0F6FF" strokeWidth="1.3" strokeLinecap="round" strokeLinejoin="round"/>
<path d="M19.2871 5.35847V2.50133C19.2871 1.71235 18.6475 1.07275 17.8585 1.07275L2.14425 1.07275C1.35527 1.07275 0.715679 1.71235 0.715679 2.50133V5.35847C0.715679 6.14745 1.35527 6.78704 2.14425 6.78704L17.8585 6.78704C18.6475 6.78704 19.2871 6.14745 19.2871 5.35847Z" stroke="#F0F6FF" strokeWidth="1.3" strokeLinecap="round" strokeLinejoin="round"/>
<path d="M7.85742 11.0728H12.1431" stroke="#F0F6FF" strokeWidth="1.3" strokeLinecap="round" strokeLinejoin="round"/>
</svg>
