<svg width="24" height="24" viewBox="0 0 24 24" fill="none" xmlns="http://www.w3.org/2000/svg">
<path d="M12.0003 0.857178C13.9508 0.857178 15.8213 1.632 17.2005 3.0112C18.5797 4.39039 19.3546 6.26099 19.3546 8.21146C19.3546 16.3886 22.3374 18 23.1431 18H0.857422C1.68028 18 4.64599 16.3715 4.64599 8.21146C4.64599 6.26099 5.42082 4.39039 6.80001 3.0112C8.17921 1.632 10.0498 0.857178 12.0003 0.857178Z" stroke="black" strokeWidth="1.71429" strokeLinecap="round" strokeLinejoin="round"/>
<path d="M9.42969 21.1372C9.57787 21.7064 9.91072 22.2103 10.3761 22.57C10.8414 22.9298 11.413 23.1249 12.0011 23.1249C12.5893 23.1249 13.1608 22.9298 13.6262 22.57C14.0915 22.2103 14.4244 21.7064 14.5725 21.1372" stroke="black" strokeWidth="1.71429" strokeLinecap="round" strokeLinejoin="round"/>
</svg>
