<svg width="20" height="21" viewBox="0 0 20 21" fill="none" xmlns="http://www.w3.org/2000/svg">
<g clipPath="url(#clip0_49_15897)">
<path d="M6.42913 1.58716H2.14342C1.35444 1.58716 0.714844 2.22675 0.714844 3.01573V7.30144C0.714844 8.09042 1.35444 8.73002 2.14342 8.73002H6.42913C7.21811 8.73002 7.8577 8.09042 7.8577 7.30144V3.01573C7.8577 2.22675 7.21811 1.58716 6.42913 1.58716Z" stroke="#F0F6FF" strokeWidth="1.3" strokeLinecap="round" strokeLinejoin="round"/>
<path d="M17.8569 1.58716H13.5711C12.7822 1.58716 12.1426 2.22675 12.1426 3.01573V7.30144C12.1426 8.09042 12.7822 8.73002 13.5711 8.73002H17.8569C18.6458 8.73002 19.2854 8.09042 19.2854 7.30144V3.01573C19.2854 2.22675 18.6458 1.58716 17.8569 1.58716Z" stroke="#F0F6FF" strokeWidth="1.3" strokeLinecap="round" strokeLinejoin="round"/>
<path d="M6.42913 13.0156H2.14342C1.35444 13.0156 0.714844 13.6552 0.714844 14.4442V18.7299C0.714844 19.5189 1.35444 20.1585 2.14342 20.1585H6.42913C7.21811 20.1585 7.8577 19.5189 7.8577 18.7299V14.4442C7.8577 13.6552 7.21811 13.0156 6.42913 13.0156Z" stroke="#F0F6FF" strokeWidth="1.3" strokeLinecap="round" strokeLinejoin="round"/>
<path d="M17.8569 13.0156H13.5711C12.7822 13.0156 12.1426 13.6552 12.1426 14.4442V18.7299C12.1426 19.5189 12.7822 20.1585 13.5711 20.1585H17.8569C18.6458 20.1585 19.2854 19.5189 19.2854 18.7299V14.4442C19.2854 13.6552 18.6458 13.0156 17.8569 13.0156Z" stroke="#F0F6FF" strokeWidth="1.3" strokeLinecap="round" strokeLinejoin="round"/>
</g>
<defs>
<clipPath id="clip0_49_15897">
<rect width="20" height="20" fill="white" transform="translate(0 0.872803)"/>
</clipPath>
</defs>
</svg>
