<svg width="18" height="22" viewBox="0 0 18 22" fill="none" xmlns="http://www.w3.org/2000/svg">
    <path d="M14.6 7.3999H16.2C16.4122 7.3999 16.6157 7.48419 16.7657 7.63422C16.9157 7.78425 17 7.98773 17 8.1999V20.1999C17 20.4121 16.9157 20.6156 16.7657 20.7656C16.6157 20.9156 16.4122 20.9999 16.2 20.9999H1.8C1.58783 20.9999 1.38434 20.9156 1.23431 20.7656C1.08429 20.6156 1 20.4121 1 20.1999V8.1999C1 7.98773 1.08429 7.78425 1.23431 7.63422C1.38434 7.48419 1.58783 7.3999 1.8 7.3999H3.4" stroke="#1860CC" strokeWidth="1.3" strokeLinecap="round" strokeLinejoin="round"/>
    <path d="M9 1V13.8" stroke="#1860CC" strokeWidth="1.3" strokeLinecap="round" strokeLinejoin="round"/>
    <path d="M5.80078 10.6001L9.00078 13.8001L12.2008 10.6001" stroke="#1860CC" strokeWidth="1.3" strokeLinecap="round" strokeLinejoin="round"/>
</svg>
