<svg width="22" height="22" viewBox="0 0 22 22" fill="none" xmlns="http://www.w3.org/2000/svg">
<path d="M16.6 7.3999H18.2C18.4122 7.3999 18.6157 7.48419 18.7657 7.63422C18.9157 7.78425 19 7.98773 19 8.1999V20.1999C19 20.4121 18.9157 20.6156 18.7657 20.7656C18.6157 20.9156 18.4122 20.9999 18.2 20.9999H3.8C3.58783 20.9999 3.38434 20.9156 3.23431 20.7656C3.08429 20.6156 3 20.4121 3 20.1999V8.1999C3 7.98773 3.08429 7.78425 3.23431 7.63422C3.38434 7.48419 3.58783 7.3999 3.8 7.3999H5.4" stroke="#1860CC" strokeWidth="1.3" strokeLinecap="round" strokeLinejoin="round"/>
<path d="M11 1V13.8" stroke="#1860CC" strokeWidth="1.3" strokeLinecap="round" strokeLinejoin="round"/>
<path d="M7.80078 10.6001L11.0008 13.8001L14.2008 10.6001" stroke="#1860CC" strokeWidth="1.3" strokeLinecap="round" strokeLinejoin="round"/>
</svg>
