<svg width="20" height="21" viewBox="0 0 20 21" fill="none" xmlns="http://www.w3.org/2000/svg">
<g clipPath="url(#clip0_49_17294)">
<path d="M18.9005 9.39386C19.1374 9.65636 19.2685 9.9974 19.2685 10.351C19.2685 10.7046 19.1374 11.0456 18.9005 11.3081C17.4005 12.9224 13.9862 16.0653 10.0005 16.0653C6.01476 16.0653 2.60048 12.9224 1.10048 11.3081C0.863563 11.0456 0.732422 10.7046 0.732422 10.351C0.732422 9.9974 0.863563 9.65636 1.10048 9.39386C2.60048 7.77958 6.01476 4.63672 10.0005 4.63672C13.9862 4.63672 17.4005 7.77958 18.9005 9.39386Z" stroke="black" strokeWidth="1.67" strokeLinecap="round" strokeLinejoin="round"/>
<path d="M9.99972 13.2084C11.5777 13.2084 12.8569 11.9292 12.8569 10.3513C12.8569 8.77333 11.5777 7.49414 9.99972 7.49414C8.42176 7.49414 7.14258 8.77333 7.14258 10.3513C7.14258 11.9292 8.42176 13.2084 9.99972 13.2084Z" stroke="black" strokeWidth="1.67" strokeLinecap="round" strokeLinejoin="round"/>
</g>
<defs>
<clipPath id="clip0_49_17294">
<rect width="20" height="20" fill="white" transform="translate(0 0.350586)"/>
</clipPath>
</defs>
</svg>
