<svg width="20" height="21" viewBox="0 0 20 21" fill="none" xmlns="http://www.w3.org/2000/svg">
<g clipPath="url(#clip0_49_17394)">
<path d="M17.5583 8.06445C18.1011 8.55017 18.5583 9.0216 18.9011 9.39302C19.138 9.65553 19.2692 9.99656 19.2692 10.3502C19.2692 10.7038 19.138 11.0448 18.9011 11.3073C17.4011 12.9216 13.9868 16.0645 10.0011 16.0645H9.42969" stroke="black" strokeWidth="1.67" strokeLinecap="round" strokeLinejoin="round"/>
<path d="M5.52905 14.8215C3.87424 13.8947 2.37901 12.7081 1.10048 11.3072C0.863563 11.0447 0.732422 10.7036 0.732422 10.35C0.732422 9.99642 0.863563 9.65539 1.10048 9.39289C2.60048 7.7786 6.01476 4.63574 10.0005 4.63574C11.5716 4.66858 13.1092 5.09597 14.4719 5.8786" stroke="black" strokeWidth="1.67" strokeLinecap="round" strokeLinejoin="round"/>
<path d="M17.8569 2.49316L2.14258 18.2075" stroke="black" strokeWidth="1.67" strokeLinecap="round" strokeLinejoin="round"/>
<path d="M7.98544 12.3646C7.44888 11.8312 7.14577 11.1068 7.14258 10.3503C7.14258 9.59255 7.4436 8.86582 7.97942 8.33C8.51523 7.79418 9.24196 7.49316 9.99972 7.49316C10.7563 7.49635 11.4806 7.79947 12.014 8.33602" stroke="black" strokeWidth="1.67" strokeLinecap="round" strokeLinejoin="round"/>
<path d="M12.4868 11.7793C12.2325 12.214 11.8678 12.5738 11.4297 12.8222" stroke="black" strokeWidth="1.67" strokeLinecap="round" strokeLinejoin="round"/>
</g>
<defs>
<clipPath id="clip0_49_17394">
<rect width="20" height="20" fill="white" transform="translate(0 0.350586)"/>
</clipPath>
</defs>
</svg>
