<svg width="19" height="19" viewBox="0 0 19 19" fill="none" xmlns="http://www.w3.org/2000/svg">
<mask id="mask0_49_17425" style="mask-type:luminance" maskUnits="userSpaceOnUse" x="0" y="0" width="19" height="19">
<path fillRule="evenodd" clipRule="evenodd" d="M0.5 9.35038C0.5 14.3417 4.60335 18.3506 9.70907 18.3506C14.314 18.3506 18.5 15.0779 18.5 9.35038C18.5 8.81853 18.4153 8.24631 18.2897 7.71446H9.70907V11.1906H14.6479C14.1884 13.4004 12.263 14.6684 9.70907 14.6684C6.69488 14.6684 4.26784 12.2959 4.26784 9.35038C4.26784 6.40483 6.69488 4.03232 9.70907 4.03232C11.0065 4.03232 12.1787 4.48178 13.0997 5.21878L15.7792 2.59992C14.1458 1.20913 12.0531 0.350586 9.70907 0.350586C4.60335 0.350586 0.5 4.35901 0.5 9.35038Z" fill="white"/>
</mask>
<g mask="url(#mask0_49_17425)">
<path fillRule="evenodd" clipRule="evenodd" d="M-0.335938 14.6683V4.03223L6.77952 9.34988L-0.335938 14.6683Z" fill="#FBBC05"/>
</g>
<mask id="mask1_49_17425" style="mask-type:luminance" maskUnits="userSpaceOnUse" x="0" y="0" width="19" height="19">
<path fillRule="evenodd" clipRule="evenodd" d="M0.5 9.35038C0.5 14.3417 4.60335 18.3506 9.70907 18.3506C14.314 18.3506 18.5 15.0779 18.5 9.35038C18.5 8.81853 18.4153 8.24631 18.2897 7.71446H9.70907V11.1906H14.6479C14.1884 13.4004 12.263 14.6684 9.70907 14.6684C6.69488 14.6684 4.26784 12.2959 4.26784 9.35038C4.26784 6.40483 6.69488 4.03232 9.70907 4.03232C11.0065 4.03232 12.1787 4.48178 13.0997 5.21878L15.7792 2.59992C14.1458 1.20913 12.0531 0.350586 9.70907 0.350586C4.60335 0.350586 0.5 4.35901 0.5 9.35038Z" fill="white"/>
</mask>
<g mask="url(#mask1_49_17425)">
<path fillRule="evenodd" clipRule="evenodd" d="M-0.335938 4.03196L6.77952 9.35003L9.70899 6.85516L19.7552 5.2588V-0.46875H-0.335938V4.03196Z" fill="#EA4335"/>
</g>
<mask id="mask2_49_17425" style="mask-type:luminance" maskUnits="userSpaceOnUse" x="0" y="0" width="19" height="19">
<path fillRule="evenodd" clipRule="evenodd" d="M0.5 9.35038C0.5 14.3417 4.60335 18.3506 9.70907 18.3506C14.314 18.3506 18.5 15.0779 18.5 9.35038C18.5 8.81853 18.4153 8.24631 18.2897 7.71446H9.70907V11.1906H14.6479C14.1884 13.4004 12.263 14.6684 9.70907 14.6684C6.69488 14.6684 4.26784 12.2959 4.26784 9.35038C4.26784 6.40483 6.69488 4.03232 9.70907 4.03232C11.0065 4.03232 12.1787 4.48178 13.0997 5.21878L15.7792 2.59992C14.1458 1.20913 12.0531 0.350586 9.70907 0.350586C4.60335 0.350586 0.5 4.35901 0.5 9.35038Z" fill="white"/>
</mask>
<g mask="url(#mask2_49_17425)">
<path fillRule="evenodd" clipRule="evenodd" d="M-0.335938 14.6681L12.2207 5.2588L15.5266 5.66829L19.7552 -0.46875V19.1688H-0.335938V14.6681Z" fill="#34A853"/>
</g>
<mask id="mask3_49_17425" style="mask-type:luminance" maskUnits="userSpaceOnUse" x="0" y="0" width="19" height="19">
<path fillRule="evenodd" clipRule="evenodd" d="M0.5 9.35038C0.5 14.3417 4.60335 18.3506 9.70907 18.3506C14.314 18.3506 18.5 15.0779 18.5 9.35038C18.5 8.81853 18.4153 8.24631 18.2897 7.71446H9.70907V11.1906H14.6479C14.1884 13.4004 12.263 14.6684 9.70907 14.6684C6.69488 14.6684 4.26784 12.2959 4.26784 9.35038C4.26784 6.40483 6.69488 4.03232 9.70907 4.03232C11.0065 4.03232 12.1787 4.48178 13.0997 5.21878L15.7792 2.59992C14.1458 1.20913 12.0531 0.350586 9.70907 0.350586C4.60335 0.350586 0.5 4.35901 0.5 9.35038Z" fill="white"/>
</mask>
<g mask="url(#mask3_49_17425)">
<path fillRule="evenodd" clipRule="evenodd" d="M19.7549 19.1691L6.77928 9.34988L5.10547 8.12304L19.7549 4.03223V19.1691Z" fill="#4285F4"/>
</g>
</svg>
