<svg width="20" height="21" viewBox="0 0 20 21" fill="none" xmlns="http://www.w3.org/2000/svg">
<path d="M10.0006 20.1586C15.1289 20.1586 19.2863 16.0012 19.2863 10.8729C19.2863 5.74451 15.1289 1.58716 10.0006 1.58716C4.8722 1.58716 0.714844 5.74451 0.714844 10.8729C0.714844 16.0012 4.8722 20.1586 10.0006 20.1586Z" stroke="#F0F6FF" strokeWidth="1.3" strokeLinecap="round" strokeLinejoin="round"/>
<path d="M7.85742 8.73002C7.85742 8.3062 7.9831 7.8919 8.21856 7.53951C8.45402 7.18712 8.78869 6.91246 9.18024 6.75027C9.5718 6.58809 10.0027 6.54565 10.4183 6.62833C10.834 6.71102 11.2158 6.9151 11.5155 7.21479C11.8152 7.51447 12.0193 7.89629 12.102 8.31197C12.1846 8.72764 12.1422 9.1585 11.98 9.55005C11.8178 9.94161 11.5432 10.2763 11.1908 10.5117C10.8384 10.7472 10.4241 10.8729 10.0003 10.8729V12.3014" stroke="#F0F6FF" strokeWidth="1.3" strokeLinecap="round" strokeLinejoin="round"/>
<path d="M10.0011 14.4443C9.78921 14.4443 9.58206 14.5072 9.40586 14.6249C9.22967 14.7426 9.09234 14.91 9.01125 15.1057C8.93015 15.3015 8.90893 15.517 8.95028 15.7248C8.99162 15.9326 9.09366 16.1235 9.2435 16.2734C9.39334 16.4232 9.58425 16.5253 9.79209 16.5666C9.99993 16.6079 10.2154 16.5867 10.4111 16.5056C10.6069 16.4245 10.7742 16.2872 10.892 16.111C11.0097 15.9348 11.0725 15.7277 11.0725 15.5158C11.0688 15.2328 10.9548 14.9624 10.7546 14.7622C10.5545 14.5621 10.2841 14.448 10.0011 14.4443Z" fill="#F0F6FF"/>
</svg>
