<svg width="18" height="18" viewBox="0 0 18 18" fill="none" xmlns="http://www.w3.org/2000/svg">
<path d="M8.99972 17.3569C13.6152 17.3569 17.3569 13.6152 17.3569 8.99972C17.3569 4.3842 13.6152 0.642578 8.99972 0.642578C4.3842 0.642578 0.642578 4.3842 0.642578 8.99972C0.642578 13.6152 4.3842 17.3569 8.99972 17.3569Z" stroke="black" strokeWidth="1.71429" strokeLinecap="round" strokeLinejoin="round"/>
<path d="M7.07031 7.07115C7.07031 6.68972 7.18342 6.31685 7.39534 5.99969C7.60725 5.68254 7.90845 5.43535 8.26085 5.28938C8.61325 5.14341 9.00102 5.10522 9.37513 5.17964C9.74924 5.25405 10.0929 5.43773 10.3626 5.70744C10.6323 5.97716 10.816 6.3208 10.8904 6.69491C10.9648 7.06901 10.9266 7.45678 10.7807 7.80918C10.6347 8.16158 10.3875 8.46278 10.0703 8.6747C9.75319 8.88661 9.38032 8.99972 8.99888 8.99972V10.2854" stroke="black" strokeWidth="1.71429" strokeLinecap="round" strokeLinejoin="round"/>
<path d="M8.99944 12.2139C8.80872 12.2139 8.62229 12.2704 8.46371 12.3764C8.30514 12.4823 8.18154 12.6329 8.10856 12.8091C8.03557 12.9853 8.01648 13.1792 8.05369 13.3663C8.09089 13.5533 8.18273 13.7251 8.31759 13.86C8.45245 13.9949 8.62427 14.0867 8.81132 14.1239C8.99837 14.1611 9.19226 14.142 9.36846 14.069C9.54466 13.9961 9.69526 13.8725 9.80122 13.7139C9.90717 13.5553 9.96373 13.3689 9.96373 13.1782C9.9604 12.9234 9.85774 12.6801 9.67761 12.5C9.49749 12.3199 9.25415 12.2172 8.99944 12.2139Z" fill="black"/>
</svg>
