<svg width="184" height="41" viewBox="0 0 184 41" fill="none" xmlns="http://www.w3.org/2000/svg">
<path d="M8.66584 31.5301C7.11019 30.0022 5.8357 28.1967 4.92516 26.1968C3.90995 23.9652 3.34488 21.4919 3.34488 18.8926C3.34488 13.9758 5.3582 9.52427 8.61316 6.3026C11.8681 3.07957 16.3647 1.08643 21.3313 1.08643V1.09049C26.3007 1.09049 30.7966 3.08228 34.0495 6.30192C37.3024 9.52156 39.3137 13.9731 39.313 18.8926H39.3164C39.3164 21.4933 38.752 23.9659 37.7361 26.1975C36.684 28.5103 35.1447 30.5616 33.247 32.225C32.8489 32.5737 32.2407 32.5365 31.8877 32.1423C31.7215 31.9568 31.6428 31.7245 31.6462 31.4949V21.9037H29.1376C27.9247 21.9037 26.8226 21.4134 26.0243 20.6223C26.0044 20.6027 25.986 20.5831 25.9682 20.5621C25.2027 19.7758 24.73 18.7098 24.73 17.5388V14.7215H13.4942V14.7255H13.4936C12.8142 14.7255 12.1951 15.0019 11.7464 15.4455C11.2955 15.8924 11.0151 16.5047 11.0151 17.1751H11.0192V31.5098C11.0192 31.7773 10.9076 32.0191 10.7291 32.1931L3.34146 39.5061C2.96384 39.8799 2.35225 39.8799 1.97463 39.5061C1.597 39.1329 1.597 38.5268 1.97463 38.1529L8.66584 31.5294V31.5301ZM6.68468 25.4118C7.30721 26.7806 8.11856 28.045 9.08588 29.174V17.1758H9.0893C9.0893 15.9724 9.58322 14.882 10.3795 14.0937C11.1779 13.3033 12.2806 12.8123 13.4936 12.8123H13.4942V12.8164H25.6104C25.6384 12.8137 25.6672 12.8123 25.6966 12.8123C25.9969 12.8123 26.2651 12.9478 26.4423 13.1604L33.2594 20.2397C33.4536 20.4144 33.5754 20.6664 33.5754 20.9467C33.5754 20.9752 33.574 21.0036 33.5713 21.0314V29.1787C34.54 28.049 35.3534 26.7826 35.9766 25.4118C36.8803 23.4255 37.3831 21.2183 37.3831 18.892H37.3872C37.3872 14.5054 35.5887 10.5327 32.682 7.65438C29.7752 4.77675 25.7609 2.99627 21.3306 2.99627V3.00033C16.897 3.00033 12.884 4.77946 9.97932 7.65506C7.07462 10.5313 5.27748 14.5041 5.27748 18.8926C5.27748 21.219 5.78029 23.4262 6.68468 25.4125V25.4118ZM30.3553 19.9905L26.6632 16.1559V17.5395C26.6632 18.1931 26.9239 18.789 27.348 19.2292C27.3631 19.2428 27.3774 19.2557 27.3911 19.2699C27.8406 19.7148 28.4583 19.9905 29.1376 19.9905H30.3553ZM27.268 33.6661C27.7626 33.4725 28.3222 33.7115 28.5178 34.2005C28.7142 34.6902 28.472 35.2441 27.9781 35.4378C26.93 35.851 25.8409 36.1686 24.7217 36.3799C23.6169 36.5885 22.4834 36.6982 21.3306 36.6982C20.1779 36.6982 19.0485 36.5892 17.9443 36.3799C16.8204 36.1679 15.7299 35.8503 14.6832 35.4385C14.1893 35.2441 13.9478 34.6902 14.1435 34.2012C14.3398 33.7122 14.8994 33.4725 15.3933 33.6668C16.3189 34.0312 17.2903 34.3136 18.2994 34.5046C19.2735 34.6881 20.2867 34.785 21.33 34.785C22.3732 34.785 23.3843 34.6881 24.3585 34.5046C25.3716 34.3129 26.3444 34.0305 27.2673 33.6668L27.268 33.6661ZM14.2693 26.6871C13.7357 26.6871 13.3034 26.2584 13.3034 25.7302C13.3034 25.2019 13.7364 24.7732 14.2693 24.7732H26.7399C27.2735 24.7732 27.7065 25.2019 27.7065 25.7302C27.7065 26.2584 27.2735 26.6871 26.7399 26.6871H14.2693ZM14.2693 22.9155C13.7357 22.9155 13.3034 22.4875 13.3034 21.9586C13.3034 21.4296 13.7364 21.0016 14.2693 21.0016H22.7912C23.3248 21.0016 23.7578 21.4303 23.7578 21.9586C23.7578 22.4868 23.3255 22.9155 22.7912 22.9155H14.2693ZM14.2693 19.1405C13.7378 19.1405 13.3061 18.7139 13.3061 18.187C13.3061 17.6601 13.7378 17.2341 14.2693 17.2341H19.0663C19.5985 17.2341 20.0288 17.6607 20.0288 18.1876C20.0288 18.7145 19.5978 19.1405 19.0663 19.1405H14.2693Z" fill="#4ECFE0"/>
<path d="M48.798 23.9155C49.6876 23.9155 50.3812 23.7583 50.8788 23.4438C51.3764 23.1144 51.6252 22.6576 51.6252 22.0736C51.6252 21.6543 51.4669 21.3098 51.1502 21.0403C50.8336 20.7707 50.4189 20.5611 49.9063 20.4113C49.4087 20.2616 48.8508 20.1268 48.2326 20.007C47.6295 19.8722 47.0188 19.7075 46.4006 19.5128C45.7975 19.3032 45.2396 19.0411 44.7269 18.7266C44.2293 18.3972 43.8222 17.9329 43.5056 17.3339C43.1889 16.7199 43.0306 15.9936 43.0306 15.155C43.0306 13.7623 43.5583 12.5942 44.6138 11.6508C45.6693 10.7074 47.0942 10.2356 48.8885 10.2356C50.6979 10.2356 52.1303 10.7448 53.1858 11.7631C54.2564 12.7814 54.8143 14.0468 54.8595 15.5593H51.6252C51.595 14.8405 51.3312 14.264 50.8336 13.8297C50.3511 13.3804 49.6876 13.1558 48.8433 13.1558C48.0743 13.1558 47.4561 13.328 46.9886 13.6725C46.5212 14.0019 46.2875 14.4287 46.2875 14.9528C46.2875 15.3871 46.4458 15.739 46.7625 16.0086C47.0791 16.2782 47.4938 16.4878 48.0064 16.6376C48.5191 16.7873 49.0845 16.9296 49.7027 17.0644C50.3209 17.1842 50.9391 17.3489 51.5573 17.5585C52.1756 17.7682 52.741 18.0377 53.2536 18.3672C53.7663 18.6817 54.181 19.1459 54.4976 19.7599C54.8142 20.3739 54.9726 21.1077 54.9726 21.9613C54.9726 23.3989 54.3845 24.5744 53.2084 25.4879C52.0474 26.3864 50.5169 26.8357 48.6171 26.8357C47.5465 26.8357 46.6041 26.686 45.7899 26.3864C44.9757 26.072 44.3349 25.6527 43.8674 25.1285C43.4 24.6044 43.0457 24.0353 42.8044 23.4213C42.5782 22.8074 42.4501 22.1559 42.4199 21.4671H45.6768C45.7221 22.1709 46.0085 22.755 46.5363 23.2192C47.064 23.6834 47.8179 23.9155 48.798 23.9155Z" fill="#4ECFE0"/>
<path d="M60.9383 10.5726L65.6427 16.7499L70.3471 10.5726H73.3778V26.5212H70.2114V15.6492L65.6879 21.4222H65.5974L61.074 15.6492V26.5212H57.9075V10.5726H60.9383Z" fill="#4ECFE0"/>
<path d="M87.3324 10.5726H90.9512L84.8671 26.5212H81.4745L75.3904 10.5726H79.0997L83.1934 22.1634H83.2386L87.3324 10.5726Z" fill="#4ECFE0"/>
<path d="M106.27 26.5212H102.447L99.4392 20.4787H96.2728V26.5212H92.9707V10.5726H100.253C101.957 10.5726 103.277 11.0293 104.212 11.9428C105.146 12.8563 105.614 14.0618 105.614 15.5593C105.614 16.6376 105.365 17.5735 104.867 18.3672C104.385 19.1609 103.684 19.7449 102.764 20.1193L106.27 26.5212ZM101.791 16.9745C102.138 16.6301 102.312 16.1584 102.312 15.5593C102.312 14.9603 102.131 14.4811 101.769 14.1217C101.422 13.7623 100.917 13.5826 100.253 13.5826H96.2728V17.4687H100.253C100.932 17.4687 101.445 17.304 101.791 16.9745Z" fill="#4ECFE0"/>
<path d="M118.734 10.5726V13.65H114.323V26.5212H111.021V13.65H106.611V10.5726H118.734Z" fill="#4ECFE0"/>
<path d="M137.159 24.9713V26.5212H127.457V10.5726H129.108V24.9713H137.159Z" fill="#4ECFE0"/>
<path d="M149.408 21.2649H139.841C139.916 22.4629 140.323 23.4438 141.062 24.2075C141.801 24.9713 142.758 25.3532 143.935 25.3532C144.794 25.3532 145.548 25.136 146.196 24.7017C146.845 24.2525 147.297 23.6684 147.553 22.9496H149.227C148.88 24.0877 148.239 25.0162 147.305 25.735C146.37 26.4389 145.239 26.7908 143.912 26.7908C142.163 26.7908 140.776 26.2142 139.75 25.0611C138.74 23.8931 138.235 22.4704 138.235 20.7932C138.235 19.1459 138.755 17.7382 139.796 16.5702C140.851 15.4021 142.216 14.8181 143.889 14.8181C145.563 14.8181 146.905 15.3796 147.915 16.5028C148.925 17.611 149.431 18.9962 149.431 20.6584L149.408 21.2649ZM143.889 16.2557C142.804 16.2557 141.899 16.6076 141.175 17.3114C140.451 18.0003 140.022 18.8838 139.886 19.9621H147.825C147.719 18.8389 147.312 17.9404 146.603 17.2665C145.91 16.5926 145.005 16.2557 143.889 16.2557Z" fill="#4ECFE0"/>
<path d="M161.639 17.1767V15.0876H163.177V25.9597C163.177 27.577 162.709 28.8948 161.775 29.9131C160.855 30.9314 159.528 31.4406 157.794 31.4406C156.286 31.4406 155.087 31.0812 154.198 30.3624C153.323 29.6436 152.773 28.79 152.547 27.8016H154.198C154.424 28.4755 154.854 29.0071 155.487 29.3965C156.135 29.8008 156.919 30.003 157.839 30.003C159 30.003 159.912 29.6585 160.576 28.9697C161.239 28.2958 161.571 27.4123 161.571 26.3191V24.1851C160.681 25.7275 159.256 26.4988 157.296 26.4988C155.638 26.4988 154.318 25.9297 153.338 24.7916C152.358 23.6535 151.868 22.2757 151.868 20.6584C151.868 19.0411 152.358 17.6634 153.338 16.5252C154.318 15.3871 155.638 14.8181 157.296 14.8181C159.302 14.8181 160.749 15.6043 161.639 17.1767ZM160.531 23.8257C161.269 22.9871 161.639 21.9313 161.639 20.6584C161.639 19.3855 161.269 18.3373 160.531 17.5136C159.807 16.675 158.827 16.2557 157.59 16.2557C156.354 16.2557 155.359 16.675 154.605 17.5136C153.866 18.3522 153.497 19.4005 153.497 20.6584C153.497 21.9163 153.866 22.9721 154.605 23.8257C155.359 24.6643 156.354 25.0836 157.59 25.0836C158.827 25.0836 159.807 24.6643 160.531 23.8257Z" fill="#4ECFE0"/>
<path d="M177.716 15.0876V26.5212H176.178V24.4097C175.319 25.9971 173.864 26.7908 171.813 26.7908C170.124 26.7908 168.797 26.2142 167.832 25.0611C166.867 23.8931 166.385 22.4779 166.385 20.8157C166.385 19.1534 166.867 17.7382 167.832 16.5702C168.797 15.4021 170.124 14.8181 171.813 14.8181C173.864 14.8181 175.319 15.6118 176.178 17.1991V15.0876H177.716ZM169.121 17.581C168.383 18.4496 168.013 19.5278 168.013 20.8157C168.013 22.1035 168.383 23.1817 169.121 24.0503C169.875 24.9189 170.878 25.3532 172.13 25.3532C173.381 25.3532 174.369 24.9189 175.092 24.0503C175.816 23.1817 176.178 22.1035 176.178 20.8157C176.178 19.5128 175.816 18.4271 175.092 17.5585C174.369 16.69 173.381 16.2557 172.13 16.2557C170.878 16.2557 169.875 16.6975 169.121 17.581Z" fill="#4ECFE0"/>
<path d="M183.499 26.5212H181.893V9.67407H183.499V26.5212Z" fill="#4ECFE0"/>
</svg>
