<svg width="58" height="60" viewBox="0 0 58 60" fill="none" xmlns="http://www.w3.org/2000/svg">
<g filter="url(#filter0_i_49_17451)">
<rect x="0.1875" y="0.650391" width="57.625" height="58.7" rx="8" fill="url(#paint0_linear_49_17451)"/>
<g filter="url(#filter1_d_49_17451)">
<path d="M17.1619 41.0941C15.6063 39.5662 14.3318 37.7607 13.4213 35.7607C12.406 33.5292 11.841 31.0559 11.841 28.4566C11.841 23.5398 13.8543 19.0882 17.1093 15.8666C20.3642 12.6435 24.8608 10.6504 29.8274 10.6504V10.6545C34.7968 10.6545 39.2927 12.6462 42.5456 15.8659C45.7985 19.0855 47.8098 23.5371 47.8091 28.4566H47.8125C47.8125 31.0572 47.2481 33.5299 46.2322 35.7614C45.1801 38.0742 43.6408 40.1256 41.7431 41.7889C41.345 42.1377 40.7368 42.1005 40.3838 41.7063C40.2176 41.5207 40.1389 41.2884 40.1423 41.0589V31.4677H37.6337C36.4208 31.4677 35.3187 30.9773 34.5204 30.1863C34.5005 30.1667 34.4821 30.147 34.4643 30.126C33.6988 29.3397 33.226 28.2738 33.226 27.1028V24.2854H21.9903V24.2895H21.9897C21.3103 24.2895 20.6912 24.5658 20.2425 25.0094C19.7916 25.4564 19.5111 26.0686 19.5111 26.7391H19.5153V41.0738C19.5153 41.3413 19.4037 41.583 19.2252 41.7571L11.8376 49.07C11.4599 49.4439 10.8483 49.4439 10.4707 49.07C10.0931 48.6969 10.0931 48.0907 10.4707 47.7169L17.1619 41.0934V41.0941ZM15.1808 34.9758C15.8033 36.3445 16.6147 37.609 17.582 38.7379V26.7398H17.5854C17.5854 25.5363 18.0793 24.4459 18.8756 23.6576C19.674 22.8673 20.7767 22.3763 21.9897 22.3763H21.9903V22.3803H34.1065C34.1345 22.3776 34.1633 22.3763 34.1927 22.3763C34.493 22.3763 34.7612 22.5117 34.9384 22.7244L41.7555 29.8037C41.9497 29.9784 42.0715 30.2303 42.0715 30.5107C42.0715 30.5392 42.0701 30.5676 42.0674 30.5954V38.7427C43.0361 37.613 43.8495 36.3466 44.4727 34.9758C45.3764 32.9894 45.8792 30.7823 45.8792 28.4559H45.8833C45.8833 24.0694 44.0848 20.0967 41.1781 17.2183C38.2713 14.3407 34.257 12.5602 29.8267 12.5602V12.5643C25.3931 12.5643 21.3801 14.3434 18.4754 17.219C15.5707 20.0953 13.7736 24.068 13.7736 28.4566C13.7736 30.783 14.2764 32.9901 15.1808 34.9765V34.9758ZM38.8514 29.5544L35.1593 25.7199V27.1035C35.1593 27.757 35.42 28.353 35.8441 28.7932C35.8592 28.8068 35.8735 28.8196 35.8872 28.8338C36.3367 29.2788 36.9544 29.5544 37.6337 29.5544H38.8514ZM35.7641 43.2301C36.2587 43.0364 36.8183 43.2755 37.0139 43.7645C37.2103 44.2541 36.9681 44.8081 36.4742 45.0018C35.4261 45.4149 34.337 45.7326 33.2178 45.9439C32.113 46.1524 30.9795 46.2622 29.8267 46.2622C28.674 46.2622 27.5446 46.1531 26.4404 45.9439C25.3164 45.7319 24.226 45.4142 23.1793 45.0025C22.6854 44.8081 22.4439 44.2541 22.6396 43.7651C22.8359 43.2762 23.3955 43.0364 23.8894 43.2308C24.815 43.5952 25.7864 43.8776 26.7955 44.0686C27.7696 44.2521 28.7828 44.3489 29.8261 44.3489C30.8693 44.3489 31.8804 44.2521 32.8546 44.0686C33.8677 43.8769 34.8405 43.5945 35.7634 43.2308L35.7641 43.2301ZM22.7654 36.2511C22.2318 36.2511 21.7995 35.8224 21.7995 35.2941C21.7995 34.7659 22.2325 34.3372 22.7654 34.3372H35.2359C35.7695 34.3372 36.2026 34.7659 36.2026 35.2941C36.2026 35.8224 35.7695 36.2511 35.2359 36.2511H22.7654ZM22.7654 32.4795C22.2318 32.4795 21.7995 32.0514 21.7995 31.5225C21.7995 30.9936 22.2325 30.5656 22.7654 30.5656H31.2873C31.8209 30.5656 32.2539 30.9943 32.2539 31.5225C32.2539 32.0508 31.8216 32.4795 31.2873 32.4795H22.7654ZM22.7654 28.7045C22.2339 28.7045 21.8022 28.2778 21.8022 27.7509C21.8022 27.224 22.2339 26.798 22.7654 26.798H27.5624C28.0946 26.798 28.5249 27.2247 28.5249 27.7516C28.5249 28.2785 28.0939 28.7045 27.5624 28.7045H22.7654Z" fill="white"/>
</g>
</g>
<defs>
<filter id="filter0_i_49_17451" x="0.1875" y="0.650391" width="57.625" height="62.7002" filterUnits="userSpaceOnUse" color-interpolation-filters="sRGB">
<feFlood flood-opacity="0" result="BackgroundImageFix"/>
<feBlend mode="normal" in="SourceGraphic" in2="BackgroundImageFix" result="shape"/>
<feColorMatrix in="SourceAlpha" type="matrix" values="0 0 0 0 0 0 0 0 0 0 0 0 0 0 0 0 0 0 127 0" result="hardAlpha"/>
<feOffset dy="4"/>
<feGaussianBlur stdDeviation="2"/>
<feComposite in2="hardAlpha" operator="arithmetic" k2="-1" k3="1"/>
<feColorMatrix type="matrix" values="0 0 0 0 0 0 0 0 0 0 0 0 0 0 0 0 0 0 0.25 0"/>
<feBlend mode="normal" in2="shape" result="effect1_innerShadow_49_17451"/>
</filter>
<filter id="filter1_d_49_17451" x="6.1875" y="10.6504" width="45.625" height="46.7002" filterUnits="userSpaceOnUse" color-interpolation-filters="sRGB">
<feFlood flood-opacity="0" result="BackgroundImageFix"/>
<feColorMatrix in="SourceAlpha" type="matrix" values="0 0 0 0 0 0 0 0 0 0 0 0 0 0 0 0 0 0 127 0" result="hardAlpha"/>
<feOffset dy="4"/>
<feGaussianBlur stdDeviation="2"/>
<feComposite in2="hardAlpha" operator="out"/>
<feColorMatrix type="matrix" values="0 0 0 0 0.117647 0 0 0 0 0.85098 0 0 0 0 0.776471 0 0 0 0.25 0"/>
<feBlend mode="normal" in2="BackgroundImageFix" result="effect1_dropShadow_49_17451"/>
<feBlend mode="normal" in="SourceGraphic" in2="effect1_dropShadow_49_17451" result="shape"/>
</filter>
<linearGradient id="paint0_linear_49_17451" x1="29" y1="0.650391" x2="29" y2="59.3504" gradientUnits="userSpaceOnUse">
<stop stop-color="#1860CC"/>
<stop offset="1" stop-color="#1ED9C6"/>
</linearGradient>
</defs>
</svg>
