<svg width="20" height="18" viewBox="0 0 20 18" fill="none" xmlns="http://www.w3.org/2000/svg">
<path d="M0.714844 15.7858V2.21433C0.714844 1.83545 0.865354 1.47209 1.13326 1.20418C1.40117 0.936272 1.76453 0.785763 2.14342 0.785763H7.41484C7.74118 0.776255 8.06093 0.87881 8.32085 1.07635C8.58078 1.2739 8.7652 1.55451 8.84342 1.87148L9.28627 3.64291H17.8577C18.2366 3.64291 18.5999 3.79342 18.8679 4.06132C19.1358 4.32923 19.2863 4.6926 19.2863 5.07148V15.7858C19.2863 16.1646 19.1358 16.528 18.8679 16.7959C18.5999 17.0638 18.2366 17.2143 17.8577 17.2143H2.14342C1.76453 17.2143 1.40117 17.0638 1.13326 16.7959C0.865354 16.528 0.714844 16.1646 0.714844 15.7858Z" stroke="#F0F6FF" strokeWidth="1.3" strokeLinecap="round" strokeLinejoin="round"/>
<path d="M10.1855 7.92871V12.9287" stroke="#F0F6FF" strokeWidth="1.71429" strokeLinecap="round" strokeLinejoin="round"/>
<path d="M7.68555 10.4287H12.6855" stroke="#F0F6FF" strokeWidth="1.71429" strokeLinecap="round" strokeLinejoin="round"/>
</svg>
