<svg width="20" height="21" viewBox="0 0 20 21" fill="none" xmlns="http://www.w3.org/2000/svg">
<g opacity="0.5" clipPath="url(#clip0_49_11467)">
<path d="M16.4297 1.58716H17.8583C18.2371 1.58716 18.6005 1.73767 18.8684 2.00558C19.1363 2.27349 19.2868 2.63685 19.2868 3.01573V4.4443" stroke="#F0F6FF" strokeWidth="1.3" strokeLinecap="round" strokeLinejoin="round"/>
<path d="M0.714844 4.4443V3.01573C0.714844 2.63685 0.865354 2.27349 1.13326 2.00558C1.40117 1.73767 1.76453 1.58716 2.14342 1.58716H3.57199" stroke="#F0F6FF" strokeWidth="1.3" strokeLinecap="round" strokeLinejoin="round"/>
<path d="M7.85742 1.58716H12.1431" stroke="#F0F6FF" strokeWidth="1.3" strokeLinecap="round" strokeLinejoin="round"/>
<path d="M19.2871 8.72998V12.6586" stroke="#F0F6FF" strokeWidth="1.3" strokeLinecap="round" strokeLinejoin="round"/>
<path d="M0.714844 8.72998V13.0157" stroke="#F0F6FF" strokeWidth="1.3" strokeLinecap="round" strokeLinejoin="round"/>
<path d="M0.714844 17.3015V18.7301C0.714844 19.109 0.865354 19.4723 1.13326 19.7402C1.40117 20.0081 1.76453 20.1587 2.14342 20.1587H3.57199" stroke="#F0F6FF" strokeWidth="1.3" strokeLinecap="round" strokeLinejoin="round"/>
<path d="M7.85742 20.1587H11.786" stroke="#F0F6FF" strokeWidth="1.3" strokeLinecap="round" strokeLinejoin="round"/>
<path d="M11.4297 17.3015C14.1911 17.3015 16.4297 15.0629 16.4297 12.3015C16.4297 9.54009 14.1911 7.30151 11.4297 7.30151C8.66826 7.30151 6.42969 9.54009 6.42969 12.3015C6.42969 15.0629 8.66826 17.3015 11.4297 17.3015Z" stroke="#F0F6FF" strokeWidth="1.3" strokeLinecap="round" strokeLinejoin="round"/>
<path d="M14.957 15.8301L18.5713 19.4444" stroke="#F0F6FF" strokeWidth="1.3" strokeLinecap="round" strokeLinejoin="round"/>
</g>
<defs>
<clipPath id="clip0_49_11467">
<rect width="20" height="20" fill="white" transform="translate(0 0.872803)"/>
</clipPath>
</defs>
</svg>
