<svg width="27" height="27" viewBox="0 0 27 27" fill="none" xmlns="http://www.w3.org/2000/svg">
<path d="M26.1 9.53366C26.2778 10.1559 26.4167 10.8003 26.5167 11.467C26.6167 12.1337 26.6667 12.8114 26.6667 13.5003C26.6667 15.3892 26.3222 17.1448 25.6333 18.767C24.9444 20.3892 24 21.8003 22.8 23.0003C21.6 24.2003 20.1889 25.1392 18.5667 25.817C16.9444 26.4948 15.2 26.8337 13.3333 26.8337C11.4444 26.8337 9.68889 26.4948 8.06667 25.817C6.44444 25.1392 5.03333 24.2003 3.83333 23.0003C2.63333 21.8003 1.69444 20.3892 1.01667 18.767C0.338889 17.1448 0 15.3892 0 13.5003C0 11.6337 0.338889 9.88921 1.01667 8.26699C1.69444 6.64477 2.63333 5.23366 3.83333 4.03366C5.03333 2.83366 6.44444 1.88921 8.06667 1.20033C9.68889 0.511437 11.4444 0.166992 13.3333 0.166992C14.7778 0.166992 16.1389 0.378103 17.4167 0.800325C18.6944 1.22255 19.8889 1.78921 21 2.50033C21.2444 2.65588 21.3833 2.86699 21.4167 3.13366C21.45 3.40033 21.3778 3.64477 21.2 3.86699C21.0222 4.08921 20.8 4.22255 20.5333 4.26699C20.2667 4.31144 20.0111 4.25588 19.7667 4.10033C18.8333 3.52255 17.8278 3.05588 16.75 2.70033C15.6722 2.34477 14.5333 2.16699 13.3333 2.16699C10.1111 2.16699 7.41667 3.25033 5.25 5.41699C3.08333 7.58366 2 10.2781 2 13.5003C2 16.7225 3.08333 19.417 5.25 21.5837C7.41667 23.7503 10.1111 24.8337 13.3333 24.8337C16.5556 24.8337 19.25 23.7503 21.4167 21.5837C23.5833 19.417 24.6667 16.7225 24.6667 13.5003C24.6667 12.9448 24.6333 12.4114 24.5667 11.9003C24.5 11.3892 24.4 10.8781 24.2667 10.367C24.2 10.1003 24.2167 9.83366 24.3167 9.56699C24.4167 9.30033 24.5889 9.11144 24.8333 9.00033C25.0778 8.88921 25.3278 8.8781 25.5833 8.96699C25.8389 9.05588 26.0111 9.24477 26.1 9.53366ZM10.6667 18.867L6.6 14.767C6.4 14.567 6.3 14.3225 6.3 14.0337C6.3 13.7448 6.41111 13.4892 6.63333 13.267C6.83333 13.067 7.07778 12.967 7.36667 12.967C7.65556 12.967 7.91111 13.067 8.13333 13.267L11.3667 16.5337L24.4333 3.46699C24.6333 3.26699 24.8778 3.16144 25.1667 3.15033C25.4556 3.13921 25.7111 3.24477 25.9333 3.46699C26.1556 3.68921 26.2667 3.94477 26.2667 4.23366C26.2667 4.52255 26.1556 4.7781 25.9333 5.00033L12.0667 18.867C11.8667 19.067 11.6278 19.167 11.35 19.167C11.0722 19.167 10.8444 19.067 10.6667 18.867Z" fill="#49D4AA"/>
</svg>
