<svg width="25" height="24" viewBox="0 0 25 24" fill="none" xmlns="http://www.w3.org/2000/svg">
<path d="M1.35742 23.1436H20.2146" stroke="black" strokeWidth="1.71429" strokeLinecap="round" strokeLinejoin="round"/>
<path d="M11.6429 17.1433L6.5 18.069L7.35714 12.8576L18.8943 1.35474C19.0537 1.19406 19.2433 1.06653 19.4522 0.979497C19.6611 0.892465 19.8851 0.847656 20.1114 0.847656C20.3377 0.847656 20.5618 0.892465 20.7707 0.979497C20.9796 1.06653 21.1692 1.19406 21.3286 1.35474L23.1457 3.17188C23.3064 3.33125 23.4339 3.52085 23.521 3.72975C23.608 3.93865 23.6528 4.16272 23.6528 4.38902C23.6528 4.61533 23.608 4.8394 23.521 5.0483C23.4339 5.2572 23.3064 5.4468 23.1457 5.60617L11.6429 17.1433Z" stroke="black" strokeWidth="1.71429" strokeLinecap="round" strokeLinejoin="round"/>
</svg>
