<svg width="20" height="21" viewBox="0 0 20 21" fill="none" xmlns="http://www.w3.org/2000/svg">
<path d="M10.0011 12.3015C11.9736 12.3015 13.5725 10.7026 13.5725 8.73012C13.5725 6.75767 11.9736 5.15869 10.0011 5.15869C8.02867 5.15869 6.42969 6.75767 6.42969 8.73012C6.42969 10.7026 8.02867 12.3015 10.0011 12.3015Z" stroke="#F0F6FF" strokeWidth="1.3" strokeLinecap="round" strokeLinejoin="round"/>
<path d="M3.90039 17.8729C4.53788 16.8265 5.43383 15.9617 6.50211 15.3616C7.5704 14.7615 8.77509 14.4463 10.0004 14.4463C11.2257 14.4463 12.4304 14.7615 13.4987 15.3616C14.567 15.9617 15.4629 16.8265 16.1004 17.8729" stroke="#F0F6FF" strokeWidth="1.3" strokeLinecap="round" strokeLinejoin="round"/>
<path d="M10.0006 20.1586C15.1289 20.1586 19.2863 16.0012 19.2863 10.8729C19.2863 5.74451 15.1289 1.58716 10.0006 1.58716C4.8722 1.58716 0.714844 5.74451 0.714844 10.8729C0.714844 16.0012 4.8722 20.1586 10.0006 20.1586Z" stroke="#F0F6FF" strokeWidth="1.3" strokeLinecap="round" strokeLinejoin="round"/>
</svg>
