<svg width="16" height="16" viewBox="0 0 16 16" fill="none" xmlns="http://www.w3.org/2000/svg">
<path d="M3.84615 9.84612C4.86576 9.84612 5.69231 9.01956 5.69231 7.99996C5.69231 6.98036 4.86576 6.15381 3.84615 6.15381C2.82655 6.15381 2 6.98036 2 7.99996C2 9.01956 2.82655 9.84612 3.84615 9.84612Z" stroke="#1860CC" strokeWidth="1.3" strokeLinecap="round" strokeLinejoin="round"/>
<path d="M12.1538 5.69231C13.1734 5.69231 13.9999 4.86576 13.9999 3.84615C13.9999 2.82655 13.1734 2 12.1538 2C11.1342 2 10.3076 2.82655 10.3076 3.84615C10.3076 4.86576 11.1342 5.69231 12.1538 5.69231Z" stroke="#1860CC" strokeWidth="1.3" strokeLinecap="round" strokeLinejoin="round"/>
<path d="M12.1538 13.9999C13.1734 13.9999 13.9999 13.1734 13.9999 12.1538C13.9999 11.1342 13.1734 10.3076 12.1538 10.3076C11.1342 10.3076 10.3076 11.1342 10.3076 12.1538C10.3076 13.1734 11.1342 13.9999 12.1538 13.9999Z" stroke="#1860CC" strokeWidth="1.3" strokeLinecap="round" strokeLinejoin="round"/>
<path d="M4.96289 6.53214L10.3629 4.28906" stroke="#1860CC" strokeWidth="1.3" strokeLinecap="round" strokeLinejoin="round"/>
<path d="M4.96289 9.46777L10.3629 11.7109" stroke="#1860CC" strokeWidth="1.3" strokeLinecap="round" strokeLinejoin="round"/>
</svg>
