<svg  width="14" height="14" viewBox="0 0 14 14" fill="none" xmlns="http://www.w3.org/2000/svg">
    <path d="M2 3.5C2.82843 3.5 3.5 2.82843 3.5 2C3.5 1.17157 2.82843 0.5 2 0.5C1.17157 0.5 0.5 1.17157 0.5 2C0.5 2.82843 1.17157 3.5 2 3.5Z" stroke="#B8C2CC" strokeWidth="1.3" strokeLinecap="round" strokeLinejoin="round"/>
    <path d="M3.5 2H13.5" stroke="#B8C2CC" strokeWidth="1.3" strokeLinecap="round" strokeLinejoin="round"/>
    <path d="M7 8.5C7.82843 8.5 8.5 7.82843 8.5 7C8.5 6.17157 7.82843 5.5 7 5.5C6.17157 5.5 5.5 6.17157 5.5 7C5.5 7.82843 6.17157 8.5 7 8.5Z" stroke="#B8C2CC" strokeWidth="1.3" strokeLinecap="round" strokeLinejoin="round"/>
    <path d="M0.5 7H5.5" stroke="#B8C2CC" strokeWidth="1.3" strokeLinecap="round" strokeLinejoin="round"/>
    <path d="M8.5 7H13.5" stroke="#B8C2CC" strokeWidth="1.3" strokeLinecap="round" strokeLinejoin="round"/>
    <path d="M12 13.5C12.8284 13.5 13.5 12.8284 13.5 12C13.5 11.1716 12.8284 10.5 12 10.5C11.1716 10.5 10.5 11.1716 10.5 12C10.5 12.8284 11.1716 13.5 12 13.5Z" stroke="#B8C2CC" strokeWidth="1.3" strokeLinecap="round" strokeLinejoin="round"/>
    <path d="M10.5 12H0.5" stroke="#B8C2CC" strokeWidth="1.3" strokeLinecap="round" strokeLinejoin="round"/>
</svg>
