<svg width="26" height="26" viewBox="0 0 26 26" fill="none" xmlns="http://www.w3.org/2000/svg">
    <path d="M20 14.0771L15.5631 20.0002L12.6016 17.7818" stroke="#1860CC" strokeWidth="1.71429" strokeLinecap="round" strokeLinejoin="round"/>
    <path d="M10.8459 10.8462C12.1842 10.8462 13.269 9.76131 13.269 8.42308C13.269 7.08485 12.1842 6 10.8459 6C9.5077 6 8.42285 7.08485 8.42285 8.42308C8.42285 9.76131 9.5077 10.8462 10.8459 10.8462Z" stroke="#1860CC" strokeWidth="1.71429" strokeLinecap="round" strokeLinejoin="round"/>
    <path d="M8.69231 18.9231H6V17.3077C6.00084 16.3499 6.28552 15.4137 6.81808 14.6176C7.35064 13.8214 8.10719 13.2009 8.99219 12.8345C9.87718 12.468 10.8509 12.3721 11.7904 12.5587C12.7299 12.7453 13.593 13.2062 14.2708 13.8831" stroke="#1860CC" strokeWidth="1.71429" strokeLinecap="round" strokeLinejoin="round"/>
</svg>